General
      Complete name : Das.Boot.[The.Boat].1981.Director's.Cut.DVDRip.H264.AAC.Gopo.mp4
      Format : MPEG-4
      Format profile : Base Media
      Codec ID : isom
      File size : 1.69 GiB
      Duration : 3h 19mn
      Overall bit rate : 1 211 Kbps
      Encoded date : UTC 2009-12-07 16:10:41
      Tagged date : UTC 2009-12-07 16:10:41
   Video #1
      ID : 1
      Format : AVC
      Format/Info : Advanced Video Codec
      Format profile : High@L4.1
      Format settings, CABAC : Yes
      Format settings, ReFrames : 3 frames
      Codec ID : avc1
      Codec ID/Info : Advanced Video Coding
      Duration : 3h 19mn
      Bit rate mode : Variable
      Bit rate : 1 016 Kbps
      Nominal bit rate : 1 243 Kbps
      Maximum bit rate : 10.8 Mbps
      Width : 720 pixels
      Height : 416 pixels
      Display aspect ratio : 16:9
      Frame rate mode : Constant
      Frame rate : 25.000 fps
      Resolution : 24 bits
      Colorimetry : 4:2:0
      Scan type : Progressive
      Bits/(Pixel*Frame) : 0.136
      Stream size : 1.42 GiB (84%)
      Writing library : x264 core 79 r1354 636f98f
      Encoding settings : cabac=1 / ref=3 / deblock=1:0:0 / analyse=0x3:0x113 / me=umh / subme=8 / psy=1 / psy_rd=1.0:0.0 / mixed_ref=1 / me_range=16 / chroma_me=1 / trellis=2 / 8x8dct=1 / cqm=0 / deadzone=21,11 / chroma_qp_offset=-2 / threads=3 / nr=0 / decimate=1 / mbaff=0 / constrained_intra=0 / bframes=3 / b_pyramid=0 / b_adapt=1 / b_bias=0 / direct=3 / wpredb=1 / wpredp=2 / keyint=250 / keyint_min=25 / scenecut=40 / rc_lookahead=0 / rc=2pass / mbtree=0 / bitrate=1243 / ratetol=1.0 / qcomp=0.60 / qpmin=19 / qpmax=51 / qpstep=4 / cplxblur=20.0 / qblur=0.5 / vbv_maxrate=25000 / vbv_bufsize=9000 / ip_ratio=1.40 / pb_ratio=1.30 / aq=2:1.00
      Encoded date : UTC 2009-12-06 23:25:07
      Tagged date : UTC 2009-12-07 16:14:26
   Audio #2
      ID : 2
      Format : AAC
      Format/Info : Advanced Audio Codec
      Format version : Version 4
      Format profile : LC
      Format settings, SBR : No
      Codec ID : 40
      Duration : 3h 19mn
      Bit rate mode : Variable
      Bit rate : 192 Kbps
      Maximum bit rate : 234 Kbps
      Channel(s) : 2 channels
      Channel positions : L R
      Sampling rate : 48.0 KHz
      Resolution : 16 bits
      Stream size : 274 MiB (16%)
      Encoded date : UTC 2009-12-07 16:13:57
      Tagged date : UTC 2009-12-07 16:14:26
	Sample : YES
	Subtitle : English,Romanian

PLOT

This is the story of 42 raw recruits caught up in a war they didn't understand, and the Captain who must lead them in their struggle to survive.
Director: Wolfgang Petersen
CASTING
      
      Jürgen Prochnow	... 	Capt.-Lt. Henrich Lehmann-Willenbrock - Der Alte
	Herbert Grönemeyer	... 	Lt. Werner - Correspondent
	Klaus Wennemann	... 	Chief Engineer Fritz Grade - Der Leitende-Der LI
	Hubertus Bengsch	... 	1st Lieutenant - Number One-1WO
	Martin Semmelrogge	... 	2nd Lieutenant - 2WO
	Bernd Tauber	... 	Kriechbaum - Chief Quartermaster-Navigator
	Erwin Leder	... 	Johann
	Martin May	... 	Ullman
	Heinz Hoenig	... 	Hinrich (as Heinz Hönig)
	Uwe Ochsenknecht	... 	Chief Bosun
	Claude-Oliver Rudolph	... 	Ario
	Jan Fedder	... 	Pilgrim
	Ralf Richter	... 	Frenssen (as Ralph Richter)
	Joachim Bernhard	... 	Preacher
	Oliver Stritzel	... 	Schwalle

SOURCE: from piratebay :P

Notes: For best performance I suggest you to use KMPlayer(find it with google) for playback
I haven't tested the movies on a PS3 or Xbox or other devices than PC because I don't own one of them but feel free to test them if you have the oportunity.
